<svg width="11" height="11" viewBox="0 0 11 11" fill="none" xmlns="http://www.w3.org/2000/svg">
<path d="M10.8143 8.49923C10.7754 8.45236 10.7372 8.40549 10.6997 8.36025C10.1841 7.73658 9.87213 7.36017 9.87213 5.59463C9.87213 4.68057 9.65346 3.93057 9.22244 3.36807C8.90463 2.95252 8.47502 2.63729 7.90877 2.40432C7.90149 2.40026 7.89498 2.39495 7.88955 2.38861C7.68588 1.70658 7.12854 1.24979 6.49995 1.24979C5.87135 1.24979 5.31424 1.70658 5.11057 2.38791C5.10514 2.39401 5.09872 2.39916 5.09159 2.40314C3.77018 2.94713 3.12799 3.9908 3.12799 5.59392C3.12799 7.36017 2.81651 7.73658 2.30042 8.35955C2.26292 8.40478 2.22471 8.45072 2.18581 8.49853C2.08531 8.61973 2.02163 8.76719 2.00232 8.92345C1.983 9.07971 2.00886 9.23823 2.07682 9.38025C2.22143 9.68494 2.52963 9.87408 2.88143 9.87408H10.121C10.4712 9.87408 10.7773 9.68517 10.9224 9.38189C10.9906 9.23983 11.0167 9.08118 10.9976 8.92474C10.9784 8.7683 10.9148 8.62064 10.8143 8.49923Z" fill="#718096"/>
<path d="M6.49996 11.75C6.83864 11.7497 7.17093 11.6578 7.46159 11.4839C7.75225 11.3101 7.99044 11.0608 8.15089 10.7626C8.15845 10.7483 8.16219 10.7323 8.16173 10.7161C8.16128 10.7 8.15665 10.6842 8.1483 10.6703C8.13995 10.6565 8.12816 10.645 8.11408 10.6371C8.09999 10.6292 8.08409 10.625 8.06792 10.625H4.93246C4.91627 10.6249 4.90034 10.6291 4.88622 10.637C4.87211 10.6449 4.86029 10.6564 4.85191 10.6702C4.84353 10.6841 4.83888 10.6999 4.83842 10.7161C4.83795 10.7322 4.84169 10.7483 4.84926 10.7626C5.00969 11.0608 5.24784 11.31 5.53846 11.4839C5.82907 11.6577 6.16132 11.7497 6.49996 11.75Z" fill="#718096"/>
</svg>
