<svg width="15" height="12" viewBox="0 0 15 12" fill="none" xmlns="http://www.w3.org/2000/svg">
<path d="M5.45637 0.761795C4.39788 0.256424 2.91839 0.00886575 0.937624 7.66849e-05C0.750818 -0.00246128 0.567677 0.0520109 0.412624 0.156229C0.285355 0.242253 0.181174 0.358233 0.109245 0.493968C0.0373168 0.629702 -0.00015577 0.781032 0.000123621 0.934647V9.31648C0.000123621 9.88309 0.403249 10.3105 0.937624 10.3105C3.01975 10.3105 5.10833 10.5051 6.3593 11.6875C6.37642 11.7037 6.39793 11.7146 6.42116 11.7187C6.4444 11.7228 6.46833 11.7201 6.48999 11.7107C6.51165 11.7013 6.53009 11.6858 6.543 11.6661C6.55591 11.6463 6.56274 11.6232 6.56262 11.5996V1.72332C6.56267 1.65668 6.54842 1.59082 6.52082 1.53017C6.49323 1.46951 6.45293 1.41549 6.40266 1.37176C6.11611 1.12679 5.79781 0.921614 5.45637 0.761795ZM13.6501 0.15535C13.495 0.0513913 13.3118 -0.0027767 13.1251 7.66849e-05C11.1444 0.00886575 9.66487 0.255252 8.60637 0.761795C8.26495 0.921324 7.94657 1.12609 7.65979 1.37058C7.60963 1.4144 7.56943 1.46844 7.54189 1.52908C7.51435 1.58972 7.50011 1.65555 7.50012 1.72215V11.599C7.50011 11.6217 7.50679 11.6439 7.51933 11.6627C7.53187 11.6816 7.54971 11.6964 7.57062 11.7052C7.59152 11.714 7.61455 11.7164 7.63683 11.7122C7.6591 11.7079 7.67963 11.6972 7.69583 11.6813C8.44788 10.9343 9.7677 10.3096 13.1263 10.3099C13.3749 10.3099 13.6134 10.2112 13.7892 10.0354C13.965 9.85954 14.0638 9.62108 14.0638 9.37244V0.93494C14.0641 0.781022 14.0266 0.629387 13.9544 0.493423C13.8823 0.35746 13.7778 0.241352 13.6501 0.15535Z" fill="white"/>
</svg>
