<svg width="15" height="11" viewBox="0 0 15 11" fill="none" xmlns="http://www.w3.org/2000/svg">
<path d="M9.84378 5.5C9.24143 5.5 8.65901 5.23105 8.20315 4.74297C7.75989 4.26689 7.48919 3.63203 7.44143 2.95586C7.39046 2.23457 7.61048 1.57129 8.06077 1.08789C8.51106 0.604492 9.14065 0.34375 9.84378 0.34375C10.5419 0.34375 11.1733 0.60918 11.6221 1.09141C12.0753 1.57832 12.2959 2.24043 12.2449 2.95557C12.196 3.63262 11.9256 4.26719 11.4832 4.74268C11.0285 5.23105 10.4464 5.5 9.84378 5.5ZM13.706 10.6562H5.98186C5.85768 10.6569 5.73499 10.6291 5.62325 10.5749C5.51152 10.5207 5.4137 10.4416 5.33733 10.3437C5.25633 10.2375 5.20039 10.1144 5.1737 9.98353C5.14701 9.85268 5.15027 9.71749 5.18323 9.58809C5.42991 8.59756 6.04104 7.77607 6.95042 7.2127C7.75755 6.71289 8.78499 6.4375 9.84378 6.4375C10.9234 6.4375 11.9239 6.70117 12.7357 7.20068C13.6471 7.76113 14.2591 8.5873 14.5046 9.58984C14.5372 9.71935 14.5401 9.85453 14.5131 9.98531C14.4861 10.1161 14.4299 10.2391 14.3488 10.3451C14.2725 10.4426 14.1749 10.5213 14.0635 10.5752C13.952 10.6292 13.8298 10.6569 13.706 10.6562ZM4.30667 5.61719C3.27571 5.61719 2.36927 4.65859 2.28518 3.48057C2.24358 2.87705 2.43167 2.31895 2.81253 1.90967C3.18929 1.50449 3.72073 1.28125 4.30667 1.28125C4.89261 1.28125 5.41995 1.50566 5.79876 1.91318C6.18255 2.32568 6.37005 2.88262 6.3261 3.48115C6.24202 4.65889 5.33587 5.61719 4.30667 5.61719ZM6.2303 6.53857C5.71497 6.28662 5.04612 6.16064 4.30696 6.16064C3.44388 6.16064 2.60569 6.38564 1.94651 6.79404C1.19915 7.25781 0.696414 7.93311 0.493387 8.74844C0.463676 8.86571 0.460866 8.98819 0.485167 9.1067C0.509468 9.22521 0.560252 9.3367 0.633719 9.43281C0.70343 9.5223 0.792738 9.59462 0.894774 9.64419C0.99681 9.69376 1.10886 9.71927 1.22229 9.71875H4.47425C4.52913 9.71874 4.58228 9.69947 4.62441 9.6643C4.66655 9.62912 4.695 9.58027 4.70481 9.52627C4.70804 9.50781 4.71214 9.48936 4.71682 9.47119C4.96526 8.47334 5.54739 7.63018 6.40755 7.01553C6.43918 6.99272 6.46463 6.96238 6.48158 6.92726C6.49853 6.89214 6.50645 6.85334 6.50461 6.81438C6.50278 6.77543 6.49125 6.73754 6.47108 6.70417C6.45091 6.67079 6.42273 6.64298 6.38909 6.62324C6.34309 6.59629 6.29036 6.56787 6.2303 6.53857Z" fill="white"/>
</svg>
