<svg width="18" height="19" viewBox="0 0 18 19" fill="none" xmlns="http://www.w3.org/2000/svg">
<path d="M8.99988 0.5C4.03113 0.5 -0.00012207 4.53125 -0.00012207 9.5C-0.00012207 14.4687 4.03113 18.5 8.99988 18.5C13.9686 18.5 17.9999 14.4687 17.9999 9.5C17.9999 4.53125 13.9686 0.5 8.99988 0.5ZM8.71863 14.75C8.53321 14.75 8.35195 14.695 8.19778 14.592C8.04361 14.489 7.92345 14.3426 7.85249 14.1713C7.78153 14 7.76297 13.8115 7.79914 13.6296C7.83531 13.4477 7.9246 13.2807 8.05571 13.1496C8.18683 13.0185 8.35387 12.9292 8.53573 12.893C8.71759 12.8568 8.90609 12.8754 9.07739 12.9464C9.2487 13.0173 9.39511 13.1375 9.49813 13.2916C9.60114 13.4458 9.65613 13.6271 9.65613 13.8125C9.65613 14.0611 9.55735 14.2996 9.38154 14.4754C9.20572 14.6512 8.96727 14.75 8.71863 14.75V14.75ZM10.2861 9.96875C9.52628 10.4787 9.42175 10.9461 9.42175 11.375C9.42175 11.549 9.35261 11.716 9.22954 11.839C9.10647 11.9621 8.93955 12.0312 8.7655 12.0312C8.59145 12.0312 8.42453 11.9621 8.30146 11.839C8.17839 11.716 8.10925 11.549 8.10925 11.375C8.10925 10.348 8.58175 9.5314 9.55394 8.87844C10.4577 8.27187 10.9686 7.8875 10.9686 7.04234C10.9686 6.46766 10.6405 6.03125 9.96128 5.70828C9.80144 5.63234 9.44566 5.55828 9.00785 5.56344C8.45847 5.57047 8.03191 5.70172 7.70331 5.96609C7.08363 6.46484 7.03113 7.00765 7.03113 7.01562C7.02697 7.1018 7.00588 7.18632 6.96906 7.26435C6.93225 7.34238 6.88042 7.41239 6.81654 7.4704C6.75267 7.5284 6.67799 7.57325 6.59678 7.60239C6.51557 7.63153 6.42942 7.64439 6.34324 7.64023C6.25706 7.63608 6.17254 7.61499 6.09451 7.57817C6.01648 7.54135 5.94647 7.48952 5.88846 7.42565C5.83046 7.36177 5.78561 7.2871 5.75647 7.20589C5.72733 7.12468 5.71447 7.03852 5.71863 6.95234C5.72378 6.83844 5.803 5.81234 6.87972 4.94609C7.438 4.49703 8.14816 4.26359 8.98909 4.25328C9.58441 4.24625 10.1436 4.34703 10.5228 4.52609C11.6577 5.06281 12.2811 5.95766 12.2811 7.04234C12.2811 8.62812 11.2213 9.34015 10.2861 9.96875Z" fill="#0075FF"/>
</svg>
