<svg width="13" height="12" viewBox="0 0 13 12" fill="none" xmlns="http://www.w3.org/2000/svg">
<g clip-path="url(#clip0_40_268)">
<path d="M8.29603 1.51344C7.83993 1.02102 7.2029 0.749847 6.49978 0.749847C5.7929 0.749847 5.15376 1.01938 4.69978 1.50875C4.24087 2.00352 4.01728 2.67594 4.06978 3.40203C4.17384 4.83453 5.26392 5.99984 6.49978 5.99984C7.73564 5.99984 8.82384 4.83477 8.92954 3.4025C8.98275 2.68297 8.75775 2.01196 8.29603 1.51344Z" fill="#718096"/>
<path d="M10.6249 11.2493H2.37489C2.2669 11.2507 2.15996 11.228 2.06185 11.1829C1.96374 11.1378 1.87691 11.0714 1.8077 10.9885C1.65536 10.8064 1.59395 10.5577 1.63942 10.3062C1.83723 9.20886 2.45458 8.28706 3.42489 7.63995C4.28692 7.0655 5.37887 6.74933 6.49989 6.74933C7.6209 6.74933 8.71285 7.06573 9.57488 7.63995C10.5452 8.28683 11.1625 9.20862 11.3604 10.306C11.4058 10.5575 11.3444 10.8061 11.1921 10.9882C11.1229 11.0712 11.0361 11.1376 10.938 11.1828C10.8398 11.228 10.7329 11.2507 10.6249 11.2493V11.2493Z" fill="#718096"/>
</g>
<defs>
<clipPath id="clip0_40_268">
<rect width="12" height="12" fill="white" transform="translate(0.499878 3.05176e-05)"/>
</clipPath>
</defs>
</svg>
