<svg width="16" height="16" viewBox="0 0 16 16" fill="none" xmlns="http://www.w3.org/2000/svg">
<g id="Icon">
<path id="Vector" d="M14.1293 13.0958L11.3727 10.3393C12.0364 9.4558 12.3946 8.38041 12.3934 7.27542C12.3934 4.45297 10.0972 2.15668 7.27469 2.15668C4.45223 2.15668 2.15594 4.45297 2.15594 7.27542C2.15594 10.0979 4.45223 12.3942 7.27469 12.3942C8.37968 12.3954 9.45507 12.0371 10.3386 11.3735L13.0951 14.13C13.2346 14.2547 13.4166 14.3213 13.6037 14.3161C13.7908 14.3109 13.9688 14.2342 14.1011 14.1019C14.2335 13.9695 14.3101 13.7915 14.3154 13.6044C14.3206 13.4174 14.254 13.2354 14.1293 13.0958ZM3.61844 7.27542C3.61844 6.55229 3.83288 5.84539 4.23463 5.24412C4.63639 4.64286 5.20741 4.17422 5.87551 3.89749C6.5436 3.62076 7.27875 3.54835 7.98799 3.68943C8.69723 3.83051 9.34871 4.17873 9.86005 4.69007C10.3714 5.2014 10.7196 5.85288 10.8607 6.56213C11.0018 7.27137 10.9294 8.00652 10.6526 8.67461C10.3759 9.3427 9.90726 9.91373 9.306 10.3155C8.70473 10.7172 7.99783 10.9317 7.27469 10.9317C6.30535 10.9305 5.37605 10.5449 4.69062 9.8595C4.00519 9.17407 3.61961 8.24477 3.61844 7.27542Z" fill="#2D3748"/>
</g>
</svg>
