<svg width="11" height="11" viewBox="0 0 11 11" fill="none" xmlns="http://www.w3.org/2000/svg">
<path d="M5.49979 3.62512C5.12895 3.62512 4.76644 3.73509 4.45809 3.94112C4.14975 4.14714 3.90943 4.43998 3.76751 4.78259C3.6256 5.1252 3.58847 5.5022 3.66082 5.86591C3.73316 6.22963 3.91174 6.56372 4.17396 6.82595C4.43619 7.08817 4.77028 7.26675 5.13399 7.33909C5.49771 7.41144 5.87471 7.37431 6.21732 7.23239C6.55993 7.09048 6.85276 6.85016 7.05879 6.54181C7.26482 6.23347 7.37479 5.87096 7.37479 5.50012C7.3733 5.0033 7.17528 4.52724 6.82397 4.17593C6.47266 3.82463 5.99661 3.6266 5.49979 3.62512V3.62512ZM9.54791 5.50012C9.54693 5.67532 9.53409 5.85025 9.50947 6.02371L10.6506 6.91715C10.7003 6.95819 10.7338 7.01557 10.7451 7.07903C10.7564 7.14248 10.7448 7.20789 10.7123 7.26356L9.63275 9.12731C9.59994 9.18248 9.54871 9.22431 9.4881 9.24545C9.42748 9.26658 9.36135 9.26566 9.30135 9.24285L7.95955 8.70379C7.68015 8.91894 7.37439 9.0975 7.04971 9.23512L6.84908 10.6597C6.83785 10.7235 6.80482 10.7814 6.75561 10.8235C6.70641 10.8657 6.64409 10.8894 6.57932 10.8907H4.42026C4.35666 10.8895 4.29536 10.8667 4.24636 10.8262C4.19737 10.7856 4.16357 10.7296 4.15049 10.6674L3.94987 9.24285C3.62429 9.10683 3.31831 8.92799 3.04002 8.71106L1.69823 9.25012C1.63825 9.27295 1.57214 9.2739 1.51152 9.25281C1.45091 9.23172 1.39967 9.18994 1.36682 9.13481L0.287289 7.27129C0.254795 7.21563 0.243154 7.15022 0.254446 7.08676C0.265738 7.0233 0.299227 6.96593 0.34893 6.92489L1.4901 6.03145C1.46576 5.85536 1.45292 5.67788 1.45166 5.50012C1.45264 5.32492 1.46548 5.14999 1.4901 4.97653L0.34893 4.08309C0.299227 4.04205 0.265738 3.98467 0.254446 3.92121C0.243154 3.85776 0.254795 3.79235 0.287289 3.73668L1.36682 1.87293C1.39964 1.81776 1.45086 1.77593 1.51148 1.75479C1.57209 1.73366 1.63822 1.73458 1.69823 1.75739L3.04002 2.29645C3.31943 2.0813 3.62518 1.90274 3.94987 1.76512L4.15049 0.340591C4.16172 0.276782 4.19476 0.218853 4.24396 0.176703C4.29317 0.134553 4.35548 0.110798 4.42026 0.109497H6.57932C6.64292 0.110735 6.70422 0.133495 6.75321 0.174062C6.80221 0.214629 6.836 0.270606 6.84908 0.332856L7.04971 1.75739C7.37569 1.89332 7.68207 2.07216 7.96072 2.28918L9.30135 1.75012C9.36133 1.72729 9.42744 1.72634 9.48805 1.74743C9.54866 1.76852 9.5999 1.8103 9.63275 1.86543L10.7123 3.72918C10.7448 3.78485 10.7564 3.85026 10.7451 3.91372C10.7338 3.97717 10.7003 4.03455 10.6506 4.07559L9.50947 4.96903C9.5338 5.14504 9.54664 5.32244 9.54791 5.50012V5.50012Z" fill="#718096"/>
</svg>
